HIERARCHY
ROOT Hips
{
	OFFSET -0.001795 -0.223333 0.028219
	CHANNELS 6 Xposition Yposition Zposition Zrotation Yrotation Xrotation 
	JOINT LeftUpLeg
	{
		OFFSET 0.069520 -0.091406 -0.006815
		CHANNELS 3 Zrotation Yrotation Xrotation
		JOINT LeftLeg
		{
			OFFSET 0.034277 -0.375199 -0.004496
			CHANNELS 3 Zrotation Yrotation Xrotation
			JOINT LeftFoot
			{
				OFFSET -0.013596 -0.397961 -0.043693
				CHANNELS 3 Zrotation Yrotation Xrotation
				JOINT LeftToe
				{
					OFFSET 0.026358 -0.055791 0.119288
					CHANNELS 3 Zrotation Yrotation Xrotation
					End Site
					{
						OFFSET 0.000000 0.000000 0.000000
					}
				}
			}
		}
	}
	JOINT RightUpLeg
	{
		OFFSET -0.067670 -0.090522 -0.004320
		CHANNELS 3 Zrotation Yrotation Xrotation
		JOINT RightLeg
		{
			OFFSET -0.038290 -0.382569 -0.008850
			CHANNELS 3 Zrotation Yrotation Xrotation
			JOINT RightFoot
			{
				OFFSET 0.015774 -0.398415 -0.042312
				CHANNELS 3 Zrotation Yrotation Xrotation
				JOINT RightToe
				{
					OFFSET -0.025372 -0.048144 0.123348
					CHANNELS 3 Zrotation Yrotation Xrotation
					End Site
					{
						OFFSET 0.000000 0.000000 0.000000
					}
				}
			}
		}
	}
	JOINT Spine
	{
		OFFSET -0.002533 0.108963 -0.026696
		CHANNELS 3 Zrotation Yrotation Xrotation
		JOINT Spine1
		{
			OFFSET 0.005487 0.135180 0.001092
			CHANNELS 3 Zrotation Yrotation Xrotation
			JOINT Spine2
			{
				OFFSET 0.001457 0.052922 0.025425
				CHANNELS 3 Zrotation Yrotation Xrotation
				JOINT Neck
				{
					OFFSET -0.002778 0.213870 -0.042857
					CHANNELS 3 Zrotation Yrotation Xrotation
					JOINT Head
					{
						OFFSET 0.005152 0.064970 0.051349
						CHANNELS 3 Zrotation Yrotation Xrotation
						End Site
						{
							OFFSET 0.000000 0.000000 0.000000
						}
					}
				}
				JOINT LeftShoulder
				{
					OFFSET 0.078845 0.121749 -0.034090
					CHANNELS 3 Zrotation Yrotation Xrotation
					JOINT LeftArm
					{
						OFFSET 0.090977 0.030469 -0.008868
						CHANNELS 3 Zrotation Yrotation Xrotation
						JOINT LeftForeArm
						{
							OFFSET 0.259612 -0.012772 -0.027456
							CHANNELS 3 Zrotation Yrotation Xrotation
							JOINT LeftHand
							{
								OFFSET 0.249234 0.008986 -0.001171
								CHANNELS 3 Zrotation Yrotation Xrotation
								End Site
								{
									OFFSET 0.000000 0.000000 0.000000
								}
							}
						}
					}
				}
				JOINT RightShoulder
				{
					OFFSET -0.081759 0.118833 -0.038615
					CHANNELS 3 Zrotation Yrotation Xrotation
					JOINT RightArm
					{
						OFFSET -0.096012 0.032551 -0.009143
						CHANNELS 3 Zrotation Yrotation Xrotation
						JOINT RightForeArm
						{
							OFFSET -0.253742 -0.013329 -0.021401
							CHANNELS 3 Zrotation Yrotation Xrotation
							JOINT RightHand
							{
								OFFSET -0.255298 0.007772 -0.005559
								CHANNELS 3 Zrotation Yrotation Xrotation
								End Site
								{
									OFFSET 0.000000 0.000000 0.000000
								}
							}
						}
					}
				}
			}
		}
	}
}
MOTION
Frames: 18
Frame Time: 0.050000
0.000000 0.938738 0.000000 0.301877 -1.752952 4.837993 7.475375 -0.213569 -2.323195 -1.035142 0.265821 -5.931511 2.878230 8.983116 11.486131 0.000000 0.000000 0.000000 -5.827192 0.397567 -3.409545 -1.924326 -0.064327 -4.605752 -0.965501 -6.714047 10.952100 0.000000 0.000000 0.000000 5.295445 0.247768 -4.291865 -3.062147 1.415902 -3.312922 -4.901034 4.321983 6.074905 5.187041 -2.339608 -10.880527 0.000000 0.000000 0.000000 -17.318517 -3.489978 -0.808308 -53.999362 -6.152023 -3.664718 -2.786961 -16.038561 0.896340 0.000000 0.000000 0.000000 13.857863 -4.976173 -2.951057 65.326367 3.794011 -4.067953 3.604745 22.431756 1.618407 0.000000 0.000000 0.000000 
0.000124 0.938176 0.000126 0.474035 -2.131691 5.525614 7.277025 -0.205127 -1.766408 -0.774693 0.308886 -7.858898 3.119719 9.560971 12.637357 0.000000 0.000000 0.000000 -5.959334 0.454282 -4.239439 -2.304972 -0.025844 -4.305233 -0.710420 -6.385407 11.326473 0.000000 0.000000 0.000000 6.563466 0.299586 -4.763513 -3.894644 1.767048 -3.729256 -6.495460 5.166814 5.589806 4.850655 -1.879283 -11.815905 0.000000 0.000000 0.000000 -18.035873 -3.359930 -1.210769 -53.051524 -6.269747 -3.427006 -1.787323 -15.208083 0.694449 0.000000 0.000000 0.000000 14.091015 -6.349086 -3.518847 66.740172 2.899327 -4.487316 3.484264 21.893898 1.588282 0.000000 0.000000 0.000000 
0.000138 0.938043 0.000033 0.908042 -1.676910 5.574067 6.619310 -0.231357 -2.413567 -0.321612 0.238117 -6.372994 2.695240 8.773022 11.886374 0.000000 0.000000 0.000000 -6.377022 0.449513 -4.207429 -2.329113 -0.021804 -4.290334 -1.370961 -7.519359 11.070128 0.000000 0.000000 0.000000 6.190837 0.302985 -4.899928 -3.571954 1.622034 -4.261616 -6.975785 4.206822 5.775523 4.334117 -1.696914 -11.109119 0.000000 0.000000 0.000000 -17.739728 -3.757097 -0.803167 -53.205790 -6.272244 -3.495651 -0.962551 -14.123798 0.564665 0.000000 0.000000 0.000000 15.127633 -4.975787 -3.023121 65.142596 2.749672 -4.636112 4.090965 21.737409 1.647728 0.000000 0.000000 0.000000 
0.000023 0.938073 0.000011 1.198243 -1.190551 5.828462 6.652069 -0.249150 -2.607556 -0.533634 0.262076 -6.815660 2.255341 8.245070 12.480684 0.000000 0.000000 0.000000 -6.462216 0.469240 -4.706814 -2.763763 -0.005511 -4.491901 -1.759276 -8.387863 11.750741 0.000000 0.000000 0.000000 6.272106 0.318861 -5.144603 -3.923677 1.788383 -3.585793 -7.331328 3.437614 4.479155 3.843905 -1.579110 -9.709569 0.000000 0.000000 0.000000 -18.026687 -3.799894 -0.774431 -53.162417 -6.918973 -3.075592 0.541960 -13.003506 0.354837 0.000000 0.000000 0.000000 14.343568 -4.835421 -2.973773 65.688962 2.171223 -4.834979 4.538102 22.337902 1.746603 0.000000 0.000000 0.000000 
-0.000221 0.938440 -0.000065 1.497573 -0.588763 5.844360 6.208457 -0.266812 -2.879966 -0.104645 0.232709 -6.622976 1.734712 7.426879 12.279791 0.000000 0.000000 0.000000 -6.576181 0.460570 -4.709707 -3.282785 0.020848 -4.619397 -2.029116 -8.894876 12.043181 0.000000 0.000000 0.000000 5.881227 0.300944 -5.074083 -3.649589 1.671359 -3.790782 -7.655691 3.134548 4.487846 3.432810 -1.261598 -9.930350 0.000000 0.000000 0.000000 -18.151512 -4.112131 -0.651257 -52.879919 -7.718855 -2.694670 -0.177267 -12.400056 0.415642 0.000000 0.000000 0.000000 14.252220 -4.948863 -3.008104 65.504334 2.118675 -4.835903 5.070882 22.126380 1.823517 0.000000 0.000000 0.000000 
-0.000486 0.938906 -0.000099 1.698280 -0.348799 6.097624 6.064742 -0.279754 -3.040921 -0.177051 0.239210 -6.725839 1.751385 7.491106 12.322571 0.000000 0.000000 0.000000 -6.537903 0.471630 -4.958426 -3.833481 0.030855 -4.962417 -2.186540 -9.338295 12.802501 0.000000 0.000000 0.000000 5.740512 0.317777 -5.354571 -3.758108 1.720355 -3.698423 -7.754104 2.897352 4.179682 3.455684 -1.280407 -9.922054 0.000000 0.000000 0.000000 -18.628358 -4.287870 -0.611653 -52.418378 -8.069603 -2.466067 0.177565 -11.685890 0.357830 0.000000 0.000000 0.000000 13.915677 -4.705819 -2.874940 65.942658 2.013586 -4.873126 4.907619 22.071414 1.779954 0.000000 0.000000 0.000000 
-0.000765 0.939200 -0.000139 1.796640 0.044706 6.157563 5.959586 -0.290341 -3.170255 -0.234645 0.239234 -6.677019 1.644359 7.424105 12.562353 0.000000 0.000000 0.000000 -6.458460 0.462277 -4.843380 -4.110383 0.040705 -5.072942 -2.213727 -9.349783 12.868508 0.000000 0.000000 0.000000 5.503992 0.315022 -5.415262 -3.665033 1.684251 -3.587942 -7.917177 2.449947 3.941562 3.453824 -1.230170 -10.372415 0.000000 0.000000 0.000000 -18.658697 -4.426874 -0.504337 -52.305138 -8.209478 -2.380203 -0.520614 -11.722412 0.431177 0.000000 0.000000 0.000000 13.942817 -4.492483 -2.807578 66.094536 1.916734 -4.924406 4.996754 22.458737 1.821174 0.000000 0.000000 0.000000 
-0.000985 0.939515 -0.000163 1.904386 0.511133 6.351378 5.828949 -0.314386 -3.563495 -0.303469 0.229285 -6.290877 1.567403 7.270648 12.238849 0.000000 0.000000 0.000000 -6.425941 0.466147 -5.015322 -4.348752 0.068829 -4.921695 -2.357149 -9.525942 12.749622 0.000000 0.000000 0.000000 5.396217 0.315439 -5.524505 -3.594636 1.655936 -3.615028 -8.196313 2.221814 3.629893 3.502394 -1.252839 -10.368590 0.000000 0.000000 0.000000 -18.613283 -4.733769 -0.375967 -52.161014 -8.358256 -2.268678 -1.118839 -11.803488 0.491915 0.000000 0.000000 0.000000 13.844014 -4.500152 -2.793343 66.427362 1.689764 -5.023112 5.128393 22.676356 1.865264 0.000000 0.000000 0.000000 
-0.001209 0.939835 -0.000151 2.027658 0.768150 6.450381 5.777703 -0.327019 -3.765789 -0.562581 0.236910 -6.124355 1.495870 7.180282 12.223529 0.000000 0.000000 0.000000 -6.448153 0.458637 -4.893282 -4.527008 0.057710 -5.211451 -2.319590 -9.447299 12.871446 0.000000 0.000000 0.000000 5.261667 0.314081 -5.578098 -3.571702 1.645804 -3.773891 -8.243189 2.102508 3.493167 3.466256 -1.215542 -10.429967 0.000000 0.000000 0.000000 -18.470598 -4.854610 -0.313644 -52.318061 -8.462033 -2.216579 -1.673332 -12.025153 0.556073 0.000000 0.000000 0.000000 13.988641 -4.324748 -2.715483 66.322949 1.622254 -5.042075 5.140281 22.895508 1.889047 0.000000 0.000000 0.000000 
-0.001420 0.939913 -0.000053 2.130191 1.121706 6.471085 5.822090 -0.340143 -3.993901 -0.839406 0.240873 -5.770418 1.427327 7.072412 12.082263 0.000000 0.000000 0.000000 -6.469460 0.450414 -4.819212 -4.643889 0.061114 -5.276047 -2.354934 -9.472102 12.911121 0.000000 0.000000 0.000000 5.259879 0.318035 -5.662552 -3.564350 1.645219 -3.802849 -8.449302 2.001151 3.352428 3.468980 -1.166443 -10.726344 0.000000 0.000000 0.000000 -18.323388 -5.195952 -0.159125 -52.318266 -8.640258 -2.122173 -2.268024 -12.278185 0.627549 0.000000 0.000000 0.000000 14.142541 -4.207534 -2.651421 66.315542 1.641710 -5.011222 5.083825 22.957564 1.887816 0.000000 0.000000 0.000000 
-0.001647 0.939936 0.000078 2.182212 1.171520 6.469295 5.917623 -0.340385 -3.995118 -1.061059 0.251550 -5.722335 1.402640 7.033076 12.066839 0.000000 0.000000 0.000000 -6.633224 0.446792 -4.779137 -4.581978 0.051167 -5.360780 -2.343708 -9.472607 13.042788 0.000000 0.000000 0.000000 5.330641 0.326305 -5.745249 -3.595658 1.659254 -3.766326 -8.495705 2.068635 3.168882 3.509378 -1.178783 -10.748859 0.000000 0.000000 0.000000 -18.430331 -5.401519 -0.101934 -52.340045 -8.722360 -2.057400 -2.442258 -12.634908 0.660922 0.000000 0.000000 0.000000 14.277189 -4.101431 -2.593795 66.242205 1.848094 -4.865287 4.878075 22.769965 1.834746 0.000000 0.000000 0.000000 
-0.001882 0.939777 0.000273 2.185369 1.399329 6.484958 6.097506 -0.343784 -4.021371 -1.259285 0.258426 -5.591884 1.233170 6.759927 11.986124 0.000000 0.000000 0.000000 -6.608113 0.437782 -4.635420 -4.711466 0.056408 -5.402835 -2.384366 -9.524298 13.081775 0.000000 0.000000 0.000000 5.327730 0.334972 -5.869831 -3.511000 1.625075 -3.706373 -8.546492 1.926499 2.931936 3.391547 -1.086697 -10.832814 0.000000 0.000000 0.000000 -18.499308 -5.475728 -0.083459 -52.397846 -8.845990 -1.976188 -2.707684 -12.651936 0.689019 0.000000 0.000000 0.000000 14.144134 -4.152228 -2.612685 66.305246 1.873080 -4.819470 4.902785 22.517463 1.811175 0.000000 0.000000 0.000000 
-0.002135 0.939772 0.000458 2.105362 1.542762 6.472194 6.190187 -0.341212 -3.918445 -1.252209 0.260694 -5.739114 1.125382 6.622665 12.062856 0.000000 0.000000 0.000000 -6.488117 0.432236 -4.540530 -4.761281 0.063893 -5.354995 -2.412549 -9.546277 13.034314 0.000000 0.000000 0.000000 5.360689 0.346075 -6.005543 -3.421923 1.588474 -3.628591 -8.510821 1.894261 2.708120 3.327576 -1.057591 -10.699714 0.000000 0.000000 0.000000 -18.689731 -5.582908 -0.067372 -52.236580 -8.806896 -1.956865 -2.934092 -12.617386 0.710454 0.000000 0.000000 0.000000 14.244319 -4.122141 -2.603945 66.151727 1.877912 -4.786358 4.743646 22.217170 1.752038 0.000000 0.000000 0.000000 
-0.002419 0.939705 0.000571 2.090234 1.697597 6.431856 6.190356 -0.345221 -3.994820 -1.225147 0.256886 -5.657104 1.085835 6.571581 12.042649 0.000000 0.000000 0.000000 -6.329327 0.428490 -4.501210 -4.883751 0.076711 -5.298197 -2.468583 -9.608447 12.929428 0.000000 0.000000 0.000000 5.355939 0.346268 -6.014158 -3.363679 1.564918 -3.598841 -8.536484 1.824152 2.497279 3.166582 -0.971729 -10.514413 0.000000 0.000000 0.000000 -18.722291 -5.556347 -0.101956 -52.097513 -8.803138 -1.926718 -3.174328 -12.733062 0.741064 0.000000 0.000000 0.000000 14.271145 -4.106050 -2.598037 65.996565 1.775147 -4.810906 4.666886 22.202276 1.734950 0.000000 0.000000 0.000000 
-0.002713 0.939693 0.000593 2.081918 1.755306 6.404626 6.206290 -0.346758 -4.029142 -1.218787 0.256191 -5.651037 1.048891 6.541465 12.121939 0.000000 0.000000 0.000000 -6.332933 0.427602 -4.509329 -4.859701 0.087178 -5.161378 -2.609137 -9.849661 12.871763 0.000000 0.000000 0.000000 5.414762 0.351972 -6.066447 -3.391597 1.577560 -3.594663 -8.577089 1.869260 2.394179 3.090341 -0.919479 -10.473500 0.000000 0.000000 0.000000 -18.700847 -5.514713 -0.147907 -51.993845 -8.603704 -1.994810 -3.399149 -12.772201 0.765749 0.000000 0.000000 0.000000 14.237058 -4.343122 -2.701563 65.913809 1.513817 -4.931774 4.939655 22.119278 1.777702 0.000000 0.000000 0.000000 
-0.003006 0.939685 0.000573 2.153713 1.730225 6.277607 6.213133 -0.338038 -3.856218 -1.292010 0.260468 -5.657434 0.968381 6.392833 12.070138 0.000000 0.000000 0.000000 -6.356812 0.418520 -4.345596 -4.920720 0.097038 -5.089180 -2.670205 -9.964322 12.857190 0.000000 0.000000 0.000000 5.411232 0.349380 -6.006655 -3.476001 1.614278 -3.636100 -8.645155 1.901977 2.400183 2.792243 -0.728933 -10.405659 0.000000 0.000000 0.000000 -18.666321 -5.380464 -0.222889 -51.829139 -8.462421 -2.048982 -3.548873 -12.650286 0.773984 0.000000 0.000000 0.000000 14.286005 -4.427590 -2.742180 65.828932 1.187925 -5.112082 5.004202 22.404770 1.818469 0.000000 0.000000 0.000000 
-0.003252 0.939698 0.000567 2.282262 1.645863 6.128766 6.071040 -0.328902 -3.696321 -1.328351 0.262069 -5.623124 0.917373 6.292533 12.043144 0.000000 0.000000 0.000000 -6.429154 0.409355 -4.170596 -5.023088 0.119549 -4.894476 -2.779648 -10.153979 12.725757 0.000000 0.000000 0.000000 5.349294 0.343756 -5.915738 -3.486885 1.619488 -3.582018 -8.767686 1.926116 2.381251 2.607046 -0.615356 -10.330717 0.000000 0.000000 0.000000 -18.692761 -5.223470 -0.310295 -51.597349 -8.114597 -2.185509 -3.833441 -12.535624 0.797144 0.000000 0.000000 0.000000 14.264857 -4.537579 -2.794556 65.781699 0.698997 -5.382419 5.493660 22.813901 1.947806 0.000000 0.000000 0.000000 
-0.003497 0.939868 0.000574 2.377491 1.572384 6.027586 5.931366 -0.320786 -3.547710 -1.265708 0.258906 -5.617408 0.804785 6.116117 12.092160 0.000000 0.000000 0.000000 -6.482677 0.399890 -3.965184 -5.112497 0.115921 -4.998326 -2.883517 -10.375344 12.823995 0.000000 0.000000 0.000000 5.355246 0.343938 -5.889154 -3.539898 1.643553 -3.386956 -8.903374 1.913764 2.183568 2.302708 -0.425217 -10.241105 0.000000 0.000000 0.000000 -18.686521 -5.075938 -0.391092 -51.512513 -7.920945 -2.246596 -3.900462 -12.185439 0.781626 0.000000 0.000000 0.000000 14.240054 -4.808631 -2.934171 65.735262 0.342616 -5.556346 5.858031 23.009540 2.032510 0.000000 0.000000 0.000000 
